<?xml version="1.0" encoding="UTF-8" standalone="no"?>
<!DOCTYPE svg PUBLIC "-//W3C//DTD SVG 1.1//EN" "http://www.w3.org/Graphics/SVG/1.1/DTD/svg11.dtd">
<svg xmlns="http://www.w3.org/2000/svg" version="1.1" viewBox="0.00 0.00 308.00 313.00">
<path fill="#ca970a" d="
  M 81.92 55.94
  Q 87.71 42.44 93.35 28.89
  Q 96.71 20.82 99.67 17.18
  Q 110.25 4.16 129.49 5.00
  Q 151.00 5.93 172.50 6.72
  Q 187.24 7.26 192.28 8.96
  Q 202.54 12.42 207.83 21.80
  Q 210.36 26.27 213.65 40.16
  Q 218.58 60.98 222.97 79.74
  Q 224.48 86.18 222.22 79.96
  Q 214.68 59.21 207.06 37.50
  Q 203.69 27.89 200.92 24.55
  C 194.65 16.96 187.40 16.53 177.14 17.04
  Q 153.73 18.19 130.30 18.63
  Q 122.29 18.78 118.93 20.21
  C 113.35 22.57 110.80 26.03 108.66 32.04
  Q 102.90 48.18 97.12 64.28
  Q 94.45 71.72 91.93 74.32
  C 87.83 78.56 83.32 79.23 77.01 79.30
  Q 57.01 79.54 37.02 79.94
  Q 31.74 80.04 29.65 81.14
  C 26.12 83.01 24.95 86.34 24.98 90.45
  Q 25.74 182.03 24.48 273.60
  C 24.40 279.39 24.67 283.68 29.69 286.24
  Q 31.69 287.26 35.48 287.25
  Q 58.62 287.24 81.75 287.26
  Q 96.24 287.28 111.27 294.00
  Q 113.21 294.87 119.05 295.58
  Q 122.37 295.99 126.97 296.09
  Q 159.75 296.84 192.50 298.33
  Q 199.89 298.66 207.06 297.31
  C 217.90 295.26 226.61 286.40 237.75 286.86
  Q 271.60 288.24 305.36 290.41
  A 0.04 0.03 -46.6 0 1 305.36 290.48
  Q 301.56 291.31 297.64 291.52
  Q 267.79 293.16 237.94 294.83
  C 234.28 295.03 230.28 296.53 227.40 298.71
  Q 219.46 304.73 210.10 307.59
  Q 204.27 309.37 193.17 309.92
  C 171.68 310.98 150.18 311.16 128.70 312.10
  Q 115.13 312.70 102.19 308.62
  C 95.41 306.48 88.80 305.14 82.07 305.35
  Q 57.79 306.11 33.50 306.85
  C 20.57 307.25 9.47 297.71 5.81 286.48
  Q 4.47 282.38 4.43 275.36
  Q 3.85 184.95 4.96 94.55
  Q 5.08 84.54 6.62 80.13
  C 9.63 71.55 16.91 64.44 25.77 61.84
  Q 29.40 60.78 36.86 60.82
  Q 55.97 60.94 75.09 61.41
  C 79.35 61.51 80.42 59.44 81.92 55.94
  Z"
/>
<path fill="#ca970a" d="
  M 223.12 145.15
  C 194.04 113.58 141.51 113.17 114.86 147.76
  C 88.62 181.83 100.95 231.32 140.14 248.95
  C 169.91 262.33 202.65 253.62 224.70 230.54
  A 0.13 0.13 0.0 0 1 224.91 230.69
  C 212.85 253.28 190.60 267.10 165.25 269.22
  C 143.34 271.04 121.13 262.53 105.23 247.51
  C 62.37 206.99 75.80 134.83 131.09 113.00
  C 165.80 99.29 204.98 111.90 223.99 144.51
  Q 226.49 148.81 223.12 145.15
  Z"
/>
<path fill="#ca970a" d="
  M 190.81 229.12
  C 208.94 221.29 219.40 202.89 217.04 183.26
  C 212.35 144.42 165.12 130.94 139.42 161.12
  A 0.18 0.18 0.0 0 1 139.13 160.92
  C 145.90 149.14 156.88 141.59 170.22 138.98
  C 206.24 131.93 234.48 166.70 226.22 201.12
  C 220.29 225.80 196.38 242.81 170.67 238.48
  Q 150.67 235.10 139.94 217.20
  Q 138.13 214.16 140.41 216.87
  C 152.44 231.15 173.78 236.47 190.81 229.12
  Z"
/>
</svg>
